<svg width="29" height="29" viewBox="0 0 29 29" fill="none" xmlns="http://www.w3.org/2000/svg">
<circle cx="14.5" cy="14.9646" r="14" fill="#1E1F28"/>
<path d="M13.4055 10.7367L19.311 14.2363C19.4461 14.3161 19.5568 14.4244 19.6333 14.5515C19.7099 14.6785 19.75 14.8204 19.75 14.9646C19.75 15.1088 19.7099 15.2507 19.6333 15.3777C19.5568 15.5048 19.4461 15.6131 19.311 15.6929L13.4055 19.1925C13.2573 19.2804 13.0849 19.3309 12.9069 19.3386C12.7289 19.3462 12.5518 19.3108 12.3947 19.236C12.2376 19.1612 12.1062 19.0499 12.0147 18.914C11.9232 18.7781 11.8749 18.6226 11.875 18.4641V11.4651C11.8749 11.3066 11.9232 11.1511 12.0147 11.0152C12.1062 10.8793 12.2376 10.768 12.3947 10.6932C12.5518 10.6184 12.7289 10.583 12.9069 10.5906C13.0849 10.5983 13.2573 10.6488 13.4055 10.7367Z" fill="url(#paint0_linear_802_71)"/>
<defs>
<linearGradient id="paint0_linear_802_71" x1="11.875" y1="15.0493" x2="19.9925" y2="15.1945" gradientUnits="userSpaceOnUse">
<stop stop-color="#9F55FF"/>
<stop offset="1" stop-color="#FF46B9"/>
</linearGradient>
</defs>
</svg>
