<svg width="86" height="45" viewBox="0 0 86 45" fill="none" xmlns="http://www.w3.org/2000/svg">
<path fill-rule="evenodd" clip-rule="evenodd" d="M38.7019 1.67455C40.174 2.50288 41.3597 3.64676 42.2184 5.1062L42.2389 5.14564C43.118 6.60508 43.5473 8.28146 43.5473 10.1156C43.5473 11.9498 43.118 13.6064 42.2593 15.0659C41.4006 16.5253 40.2148 17.6495 38.7428 18.4778C37.2504 19.2864 35.5943 19.7006 33.8156 19.7006C32.0369 19.7006 30.4014 19.2864 28.9293 18.4778C27.4573 17.6692 26.2715 16.5253 25.4128 15.0659C24.5337 13.6064 24.1044 11.93 24.1044 10.0762C24.1044 8.22229 24.5542 6.54591 25.4128 5.08648C26.2715 3.62704 27.4573 2.48316 28.9293 1.67455C30.4014 0.865946 32.0369 0.451782 33.8156 0.451782C35.5943 0.451782 37.2299 0.846224 38.7019 1.67455ZM5.41786 0.826477H0V19.2864H4.39562V8.61671H4.4774L4.74955 9.23428C5.31249 10.5117 5.75094 11.5065 6.05165 12.2061C6.36037 12.9244 6.8304 13.9694 7.4474 15.3412L7.44755 15.3415L7.44764 15.3417L7.44774 15.3419L7.68723 15.8744C7.94084 16.4708 8.14529 16.9367 8.30059 17.2906L8.30069 17.2908C8.34566 17.3933 8.38651 17.4864 8.42324 17.5705L8.5262 17.8072C8.68438 18.1712 8.89861 18.6643 9.1797 19.2864H12.226L12.962 17.6297C13.2073 17.0775 13.4527 16.5253 13.6775 15.973C14.2296 14.7503 14.7816 13.5275 15.3131 12.3047C15.5788 11.6936 15.8495 11.0776 16.1203 10.4616L16.1205 10.4611L16.1207 10.4608C16.3916 9.84446 16.6625 9.22812 16.9283 8.61671H17.01V19.2864H21.4261V0.826477H16.0082C14.8429 3.41007 13.9638 5.36256 13.3913 6.66422C13.0679 7.39966 12.64 8.35547 12.1151 9.52807C11.711 10.4308 11.2493 11.4621 10.7335 12.6203H10.6926C9.52726 10.0367 8.64813 8.08421 8.07568 6.78255C7.75224 6.04711 7.32438 5.0913 6.79946 3.9187L6.79945 3.91869C6.39532 3.01591 5.93367 1.98463 5.41786 0.826477ZM43.5677 0.826477H48.1269C48.1844 0.978984 48.2369 1.11443 48.2834 1.23454L48.2834 1.23468L48.2837 1.23535L48.2839 1.23598L48.284 1.23609L48.284 1.23619C48.3695 1.45698 48.4348 1.62583 48.4745 1.75342C48.5146 1.85005 48.5595 1.97035 48.6142 2.11664C48.6712 2.26893 48.7386 2.44939 48.8221 2.66063C49.1113 3.41011 49.4173 4.2015 49.74 5.03609L49.7425 5.04252C50.2173 6.27051 50.7283 7.59201 51.2754 9.01115C52.1954 11.3975 52.8292 13.0936 53.1972 14.1192H53.2381C53.3884 13.7269 53.5463 13.3088 53.7152 12.8617L53.7156 12.8608L53.7161 12.8593L53.7166 12.858L53.717 12.857L53.7173 12.8561L53.7179 12.8546C53.9389 12.2697 54.1785 11.6352 54.4444 10.9439C54.8549 9.82795 55.2994 8.67913 55.7625 7.48247L55.8959 7.13755C56.4275 5.73728 56.8977 4.47507 57.3066 3.37063C57.6282 2.50208 57.8992 1.79209 58.1096 1.24067L58.1102 1.23912L58.1166 1.22256L58.1178 1.21936C58.1718 1.07779 58.2218 0.94683 58.2675 0.826477H62.8267L55.7937 19.2864H50.6212L43.5677 0.826477ZM68.9398 0.826477H64.6055V19.2864H68.9398V0.826477ZM72.5789 0.826477H85.2546V4.71173H76.9131V7.90671H84.7639V12.0089H76.9131V15.4208H85.4999V19.3061H72.5789V0.826477ZM85.5 25.9919H81.1657V44.4518H85.5V25.9919ZM72.5789 25.9919H67.4473L60.3529 44.4518H64.8712C64.9644 44.2032 65.0517 43.9717 65.1328 43.7568L65.133 43.7561C65.3541 43.1699 65.5285 42.7075 65.6481 42.3612C65.788 42.0164 65.9751 41.5234 66.2185 40.8823C66.2953 40.68 66.3777 40.463 66.4659 40.2313H73.4171L73.4172 40.2313L73.4172 40.2315C73.7443 41.0992 73.9896 41.7499 74.1736 42.2035C74.2553 42.4203 74.3626 42.6962 74.4928 43.0311L74.4929 43.0315C74.6233 43.3669 74.7767 43.7614 74.9505 44.2151C74.9709 44.2546 74.9863 44.294 75.0016 44.3335L75.0017 44.3336C75.017 44.373 75.0323 44.4124 75.0527 44.4518H79.6937L72.5993 25.9919H72.5789ZM9.11836 26.8597H51.2346C56.2705 26.8597 60.3529 30.7978 60.3529 35.6557C60.3529 40.5137 56.2705 44.4518 51.2346 44.4518H9.11836C4.08243 44.4518 0 40.5137 0 35.6557C0 30.7978 4.08243 26.8597 9.11836 26.8597Z" fill="url(#paint0_linear_642_952)"/>
<defs>
<linearGradient id="paint0_linear_642_952" x1="85.4806" y1="47.4518" x2="-20.5853" y2="-29.098" gradientUnits="userSpaceOnUse">
<stop stop-color="#9747FF"/>
<stop offset="1" stop-color="#C497FF"/>
</linearGradient>
</defs>
</svg>
